<svg width="31" height="31" viewBox="0 0 31 31" fill="none" xmlns="http://www.w3.org/2000/svg">
<circle cx="15.5" cy="15.5" r="15.5" fill="#FEFEFE"/>
<path fill-rule="evenodd" clip-rule="evenodd" d="M8 16C8 15.4477 8.44772 15 9 15H23C23.5523 15 24 15.4477 24 16C24 16.5523 23.5523 17 23 17H9C8.44772 17 8 16.5523 8 16Z" fill="black"/>
<path fill-rule="evenodd" clip-rule="evenodd" d="M15.2929 8.29289C15.6834 7.90237 16.3166 7.90237 16.7071 8.29289L23.7071 15.2929C24.0976 15.6834 24.0976 16.3166 23.7071 16.7071L16.7071 23.7071C16.3166 24.0976 15.6834 24.0976 15.2929 23.7071C14.9024 23.3166 14.9024 22.6834 15.2929 22.2929L21.5858 16L15.2929 9.70711C14.9024 9.31658 14.9024 8.68342 15.2929 8.29289Z" fill="black"/>
</svg>
