<svg width="19" height="21" viewBox="0 0 19 21" fill="none" xmlns="http://www.w3.org/2000/svg">
<path fill-rule="evenodd" clip-rule="evenodd" d="M7.92018 0.36439C8.33445 0.125667 8.80419 0 9.28235 0C9.76052 0 10.2303 0.125677 10.6446 0.36442C10.6452 0.364784 10.6458 0.365149 10.6465 0.365514L17.0124 4.00315C17.4267 4.24238 17.7708 4.58634 18.0103 5.00055C18.2497 5.41476 18.376 5.88465 18.3765 6.36308V13.6402C18.376 14.1187 18.2497 14.5886 18.0103 15.0028C17.7708 15.417 17.4267 15.761 17.0124 16.0002L17.0088 16.0022L10.6465 19.6378C10.6459 19.6381 10.6454 19.6384 10.6448 19.6388C10.2305 19.8776 9.76063 20.0033 9.28235 20.0033C8.80409 20.0033 8.33425 19.8776 7.91992 19.6388C7.91935 19.6385 7.91879 19.6381 7.91823 19.6378L1.55586 16.0022L1.55235 16.0002C1.13802 15.761 0.793873 15.417 0.554445 15.0028C0.315017 14.5886 0.188723 14.1187 0.188232 13.6402V6.36308C0.188723 5.88465 0.315017 5.41476 0.554445 5.00055C0.793874 4.58634 1.13802 4.24238 1.55235 4.00316L1.55586 4.00114L7.92018 0.36439ZM9.28235 1.81882C9.12271 1.81882 8.96589 1.86084 8.82764 1.94066L8.82414 1.94269L2.46176 5.57831C2.46128 5.57858 2.46081 5.57886 2.46033 5.57914C2.32286 5.65884 2.20866 5.77318 2.12913 5.91077C2.04938 6.04873 2.00729 6.20522 2.00706 6.36456V13.6388C2.00729 13.7981 2.04938 13.9546 2.12913 14.0926C2.20866 14.2301 2.32286 14.3445 2.46033 14.4242C2.46081 14.4245 2.46128 14.4247 2.46176 14.425L8.82765 18.0627C8.96589 18.1425 9.12272 18.1845 9.28235 18.1845C9.44198 18.1845 9.59881 18.1425 9.73706 18.0627L9.74057 18.0607L16.1029 14.425C16.1034 14.4247 16.1039 14.4245 16.1044 14.4242C16.2418 14.3445 16.356 14.2301 16.4356 14.0926C16.5154 13.9545 16.5575 13.7979 16.5576 13.6384V6.36495C16.5575 6.20547 16.5154 6.04884 16.4356 5.91077C16.356 5.77318 16.2418 5.65885 16.1044 5.57914C16.1039 5.57886 16.1034 5.57859 16.1029 5.57831L9.73705 1.94067C9.5988 1.86085 9.44198 1.81882 9.28235 1.81882Z" fill="#AAAAB9"/>
<path fill-rule="evenodd" clip-rule="evenodd" d="M0.555963 4.96287C0.807454 4.52811 1.36377 4.37955 1.79852 4.63104L9.28232 8.96015L16.7661 4.63104C17.2009 4.37955 17.7572 4.52811 18.0087 4.96287C18.2602 5.39762 18.1116 5.95393 17.6768 6.20542L9.73769 10.798C9.45598 10.9609 9.10866 10.9609 8.82696 10.798L0.887793 6.20542C0.453038 5.95393 0.304473 5.39762 0.555963 4.96287Z" fill="#AAAAB9"/>
<path fill-rule="evenodd" clip-rule="evenodd" d="M9.28246 9.09229C9.78471 9.09229 10.1919 9.49944 10.1919 10.0017V19.1686C10.1919 19.6708 9.78471 20.078 9.28246 20.078C8.7802 20.078 8.37305 19.6708 8.37305 19.1686V10.0017C8.37305 9.49944 8.7802 9.09229 9.28246 9.09229Z" fill="#AAAAB9"/>
</svg>
