<svg width="18" height="18" viewBox="0 0 18 18" fill="none" xmlns="http://www.w3.org/2000/svg">
<path fill-rule="evenodd" clip-rule="evenodd" d="M9 1.63636C4.93318 1.63636 1.63636 4.93318 1.63636 9C1.63636 13.0668 4.93318 16.3636 9 16.3636C13.0668 16.3636 16.3636 13.0668 16.3636 9C16.3636 4.93318 13.0668 1.63636 9 1.63636ZM0 9C0 4.02944 4.02944 0 9 0C13.9706 0 18 4.02944 18 9C18 13.9706 13.9706 18 9 18C4.02944 18 0 13.9706 0 9Z" fill="#757575"/>
<path fill-rule="evenodd" clip-rule="evenodd" d="M9.00007 8.18176C9.45194 8.18176 9.81825 8.54808 9.81825 8.99994V12.2727C9.81825 12.7245 9.45194 13.0909 9.00007 13.0909C8.5482 13.0909 8.18188 12.7245 8.18188 12.2727V8.99994C8.18188 8.54808 8.5482 8.18176 9.00007 8.18176Z" fill="#757575"/>
<path fill-rule="evenodd" clip-rule="evenodd" d="M8.18188 5.72724C8.18188 5.27537 8.5482 4.90906 9.00007 4.90906H9.00825C9.46012 4.90906 9.82643 5.27537 9.82643 5.72724C9.82643 6.17911 9.46012 6.54542 9.00825 6.54542H9.00007C8.5482 6.54542 8.18188 6.17911 8.18188 5.72724Z" fill="#757575"/>
</svg>
