<svg width="18" height="20" viewBox="0 0 18 20" fill="none" xmlns="http://www.w3.org/2000/svg">
<path fill-rule="evenodd" clip-rule="evenodd" d="M8.73688 0.183838C9.05203 -0.0612793 9.49333 -0.0612793 9.80849 0.183838L17.663 6.29293C17.8756 6.45827 18 6.7125 18 6.98182V16.5818C18 17.2762 17.7241 17.9421 17.2331 18.4332C16.7421 18.9242 16.0762 19.2 15.3818 19.2H3.16359C2.46921 19.2 1.80326 18.9242 1.31226 18.4332C0.821253 17.9421 0.54541 17.2762 0.54541 16.5818V6.98182C0.54541 6.7125 0.66975 6.45827 0.882335 6.29293L8.73688 0.183838ZM2.29086 7.40865V16.5818C2.29086 16.8133 2.38281 17.0353 2.54648 17.1989C2.71015 17.3626 2.93213 17.4545 3.16359 17.4545H15.3818C15.6132 17.4545 15.8352 17.3626 15.9989 17.1989C16.1626 17.0353 16.2545 16.8133 16.2545 16.5818V7.40865L9.27268 1.97835L2.29086 7.40865Z" fill="#AAAAB9"/>
<path fill-rule="evenodd" clip-rule="evenodd" d="M5.78174 9.60002C5.78174 9.11803 6.17247 8.72729 6.65447 8.72729H11.8908C12.3728 8.72729 12.7636 9.11803 12.7636 9.60002V18.3273C12.7636 18.8093 12.3728 19.2 11.8908 19.2C11.4088 19.2 11.0181 18.8093 11.0181 18.3273V10.4727H7.52719V18.3273C7.52719 18.8093 7.13646 19.2 6.65447 19.2C6.17247 19.2 5.78174 18.8093 5.78174 18.3273V9.60002Z" fill="#AAAAB9"/>
</svg>
