<svg width="19" height="19" viewBox="0 0 19 19" fill="none" xmlns="http://www.w3.org/2000/svg">
<path fill-rule="evenodd" clip-rule="evenodd" d="M9.5 1.72727C5.20724 1.72727 1.72727 5.20724 1.72727 9.5C1.72727 13.7928 5.20724 17.2727 9.5 17.2727C13.7928 17.2727 17.2727 13.7928 17.2727 9.5C17.2727 5.20724 13.7928 1.72727 9.5 1.72727ZM0 9.5C0 4.25329 4.25329 0 9.5 0C14.7467 0 19 4.25329 19 9.5C19 14.7467 14.7467 19 9.5 19C4.25329 19 0 14.7467 0 9.5Z" fill="#AAAAB9"/>
<path fill-rule="evenodd" clip-rule="evenodd" d="M9.50011 3.45459C9.97708 3.45459 10.3637 3.84125 10.3637 4.31823V8.96629L13.3409 10.4549C13.7675 10.6682 13.9404 11.1869 13.7271 11.6135C13.5138 12.0402 12.995 12.2131 12.5684 11.9998L9.11388 10.2725C8.82129 10.1262 8.63647 9.82717 8.63647 9.50004V4.31823C8.63647 3.84125 9.02314 3.45459 9.50011 3.45459Z" fill="#AAAAB9"/>
</svg>
