<svg width="17" height="17" viewBox="0 0 17 17" fill="none" xmlns="http://www.w3.org/2000/svg">
<path fill-rule="evenodd" clip-rule="evenodd" d="M0.995837 0.995837C1.63346 0.358213 2.49826 0 3.4 0C4.30174 0 5.16654 0.358213 5.80416 0.995837C6.44179 1.63346 6.8 2.49826 6.8 3.4V5.1H10.2V3.4C10.2 2.49826 10.5582 1.63346 11.1958 0.995837C11.8335 0.358213 12.6983 0 13.6 0C14.5017 0 15.3665 0.358213 16.0042 0.995837C16.6418 1.63346 17 2.49826 17 3.4C17 4.30174 16.6418 5.16654 16.0042 5.80416C15.3665 6.44179 14.5017 6.8 13.6 6.8H11.9V10.2H13.6C14.5017 10.2 15.3665 10.5582 16.0042 11.1958C16.6418 11.8335 17 12.6983 17 13.6C17 14.5017 16.6418 15.3665 16.0042 16.0042C15.3665 16.6418 14.5017 17 13.6 17C12.6983 17 11.8335 16.6418 11.1958 16.0042C10.5582 15.3665 10.2 14.5017 10.2 13.6V11.9H6.8V13.6C6.8 14.5017 6.44179 15.3665 5.80416 16.0042C5.16654 16.6418 4.30174 17 3.4 17C2.49826 17 1.63346 16.6418 0.995837 16.0042C0.358213 15.3665 0 14.5017 0 13.6C0 12.6983 0.358213 11.8335 0.995837 11.1958C1.63346 10.5582 2.49826 10.2 3.4 10.2H5.1V6.8H3.4C2.49826 6.8 1.63346 6.44179 0.995837 5.80416C0.358213 5.16654 0 4.30174 0 3.4C0 2.49826 0.358213 1.63346 0.995837 0.995837ZM5.1 5.1V3.4C5.1 2.94913 4.92089 2.51673 4.60208 2.19792C4.28327 1.87911 3.85087 1.7 3.4 1.7C2.94913 1.7 2.51673 1.87911 2.19792 2.19792C1.87911 2.51673 1.7 2.94913 1.7 3.4C1.7 3.85087 1.87911 4.28327 2.19792 4.60208C2.51673 4.92089 2.94913 5.1 3.4 5.1H5.1ZM6.8 6.8V10.2H10.2V6.8H6.8ZM5.1 11.9H3.4C2.94913 11.9 2.51673 12.0791 2.19792 12.3979C1.87911 12.7167 1.7 13.1491 1.7 13.6C1.7 14.0509 1.87911 14.4833 2.19792 14.8021C2.51673 15.1209 2.94913 15.3 3.4 15.3C3.85087 15.3 4.28327 15.1209 4.60208 14.8021C4.92089 14.4833 5.1 14.0509 5.1 13.6V11.9ZM11.9 11.9V13.6C11.9 14.0509 12.0791 14.4833 12.3979 14.8021C12.7167 15.1209 13.1491 15.3 13.6 15.3C14.0509 15.3 14.4833 15.1209 14.8021 14.8021C15.1209 14.4833 15.3 14.0509 15.3 13.6C15.3 13.1491 15.1209 12.7167 14.8021 12.3979C14.4833 12.0791 14.0509 11.9 13.6 11.9H11.9ZM11.9 5.1H13.6C14.0509 5.1 14.4833 4.92089 14.8021 4.60208C15.1209 4.28327 15.3 3.85087 15.3 3.4C15.3 2.94913 15.1209 2.51673 14.8021 2.19792C14.4833 1.87911 14.0509 1.7 13.6 1.7C13.1491 1.7 12.7167 1.87911 12.3979 2.19792C12.0791 2.51673 11.9 2.94913 11.9 3.4V5.1Z" fill="#AAAAB9"/>
</svg>
