<svg width="146" height="20" viewBox="0 0 146 20" fill="none" xmlns="http://www.w3.org/2000/svg">
<path d="M132.372 18V9.27269H134.679V10.8125H134.781C134.963 10.3011 135.266 9.89769 135.69 9.60224C136.114 9.30678 136.622 9.15906 137.213 9.15906C137.811 9.15906 138.321 9.30868 138.741 9.60792C139.162 9.90338 139.442 10.3049 139.582 10.8125H139.673C139.851 10.3125 140.173 9.91285 140.639 9.6136C141.109 9.31057 141.664 9.15906 142.304 9.15906C143.118 9.15906 143.779 9.41853 144.287 9.93747C144.798 10.4526 145.054 11.1837 145.054 12.1306V18H142.639V12.6079C142.639 12.1231 142.51 11.7594 142.253 11.517C141.995 11.2746 141.673 11.1534 141.287 11.1534C140.847 11.1534 140.505 11.2935 140.258 11.5738C140.012 11.8503 139.889 12.2159 139.889 12.6704V18H137.543V12.5568C137.543 12.1288 137.419 11.7878 137.173 11.5341C136.931 11.2803 136.611 11.1534 136.213 11.1534C135.944 11.1534 135.702 11.2216 135.486 11.3579C135.274 11.4905 135.105 11.678 134.98 11.9204C134.855 12.1591 134.793 12.4394 134.793 12.7613V18H132.372Z" fill="black"/>
<path d="M126.503 18.1704C125.62 18.1704 124.857 17.9829 124.213 17.6079C123.573 17.2291 123.079 16.7026 122.73 16.0284C122.382 15.3503 122.208 14.5644 122.208 13.6704C122.208 12.7689 122.382 11.981 122.73 11.3068C123.079 10.6288 123.573 10.1022 124.213 9.72724C124.857 9.34845 125.62 9.15906 126.503 9.15906C127.386 9.15906 128.147 9.34845 128.787 9.72724C129.431 10.1022 129.927 10.6288 130.276 11.3068C130.624 11.981 130.798 12.7689 130.798 13.6704C130.798 14.5644 130.624 15.3503 130.276 16.0284C129.927 16.7026 129.431 17.2291 128.787 17.6079C128.147 17.9829 127.386 18.1704 126.503 18.1704ZM126.514 16.2954C126.916 16.2954 127.251 16.1818 127.52 15.9545C127.789 15.7235 127.992 15.4091 128.128 15.0113C128.268 14.6136 128.338 14.161 128.338 13.6534C128.338 13.1458 128.268 12.6931 128.128 12.2954C127.992 11.8977 127.789 11.5833 127.52 11.3522C127.251 11.1212 126.916 11.0056 126.514 11.0056C126.109 11.0056 125.768 11.1212 125.492 11.3522C125.219 11.5833 125.012 11.8977 124.872 12.2954C124.736 12.6931 124.668 13.1458 124.668 13.6534C124.668 14.161 124.736 14.6136 124.872 15.0113C125.012 15.4091 125.219 15.7235 125.492 15.9545C125.768 16.1818 126.109 16.2954 126.514 16.2954Z" fill="black"/>
<path d="M116.69 18.1704C115.808 18.1704 115.045 17.9829 114.401 17.6079C113.761 17.2291 113.266 16.7026 112.918 16.0284C112.569 15.3503 112.395 14.5644 112.395 13.6704C112.395 12.7689 112.569 11.981 112.918 11.3068C113.266 10.6288 113.761 10.1022 114.401 9.72724C115.045 9.34845 115.808 9.15906 116.69 9.15906C117.573 9.15906 118.334 9.34845 118.975 9.72724C119.619 10.1022 120.115 10.6288 120.463 11.3068C120.812 11.981 120.986 12.7689 120.986 13.6704C120.986 14.5644 120.812 15.3503 120.463 16.0284C120.115 16.7026 119.619 17.2291 118.975 17.6079C118.334 17.9829 117.573 18.1704 116.69 18.1704ZM116.702 16.2954C117.103 16.2954 117.439 16.1818 117.708 15.9545C117.976 15.7235 118.179 15.4091 118.315 15.0113C118.456 14.6136 118.526 14.161 118.526 13.6534C118.526 13.1458 118.456 12.6931 118.315 12.2954C118.179 11.8977 117.976 11.5833 117.708 11.3522C117.439 11.1212 117.103 11.0056 116.702 11.0056C116.297 11.0056 115.956 11.1212 115.679 11.3522C115.406 11.5833 115.2 11.8977 115.06 12.2954C114.923 12.6931 114.855 13.1458 114.855 13.6534C114.855 14.161 114.923 14.6136 115.06 15.0113C115.2 15.4091 115.406 15.7235 115.679 15.9545C115.956 16.1818 116.297 16.2954 116.702 16.2954Z" fill="black"/>
<path d="M102.433 18V6.36365H107.024C107.903 6.36365 108.653 6.52084 109.274 6.83524C109.899 7.14584 110.374 7.58713 110.7 8.1591C111.03 8.72728 111.194 9.39584 111.194 10.1648C111.194 10.9375 111.028 11.6023 110.694 12.1591C110.361 12.7121 109.878 13.1364 109.246 13.4318C108.617 13.7273 107.855 13.875 106.962 13.875H103.888V11.8977H106.564C107.033 11.8977 107.424 11.8333 107.734 11.7046C108.045 11.5758 108.276 11.3826 108.427 11.125C108.583 10.8674 108.66 10.5474 108.66 10.1648C108.66 9.77842 108.583 9.45266 108.427 9.18751C108.276 8.92236 108.043 8.7216 107.729 8.58524C107.418 8.44509 107.026 8.37501 106.552 8.37501H104.893V18H102.433ZM108.717 12.7046L111.609 18H108.893L106.064 12.7046H108.717Z" fill="black"/>
<path d="M97.108 9.27267V11.0909H91.8523V9.27267H97.108ZM93.0455 7.18176H95.4659V15.3181C95.4659 15.5416 95.5 15.7159 95.5682 15.8409C95.6364 15.9621 95.7311 16.0473 95.8523 16.0965C95.9773 16.1458 96.1212 16.1704 96.2841 16.1704C96.3978 16.1704 96.5114 16.1609 96.625 16.142C96.7387 16.1193 96.8258 16.1022 96.8864 16.0909L97.2671 17.892C97.1459 17.9299 96.9754 17.9734 96.7557 18.0227C96.536 18.0757 96.269 18.1079 95.9546 18.1193C95.3712 18.142 94.8599 18.0643 94.4205 17.8863C93.9849 17.7083 93.6459 17.4318 93.4034 17.0568C93.161 16.6818 93.0417 16.2083 93.0455 15.6363V7.18176Z" fill="black"/>
<path d="M84.9332 12.9545V18H82.5127V9.27269H84.8195V10.8125H84.9218C85.115 10.3049 85.4388 9.90338 85.8934 9.60792C86.3479 9.30868 86.8991 9.15906 87.5468 9.15906C88.1528 9.15906 88.6813 9.29163 89.132 9.55678C89.5828 9.82194 89.9332 10.2007 90.1832 10.6931C90.4332 11.1818 90.5582 11.7651 90.5582 12.4431V18H88.1377V12.875C88.1415 12.3409 88.0051 11.9242 87.7286 11.625C87.4521 11.3219 87.0714 11.1704 86.5866 11.1704C86.2608 11.1704 85.9729 11.2405 85.7229 11.3806C85.4767 11.5208 85.2835 11.7253 85.1434 11.9943C85.007 12.2594 84.9369 12.5795 84.9332 12.9545Z" fill="black"/>
<path d="M76.9274 18.1704C76.0297 18.1704 75.257 17.9886 74.6093 17.625C73.9653 17.2575 73.4691 16.7386 73.1206 16.0681C72.7721 15.3939 72.5979 14.5966 72.5979 13.6761C72.5979 12.7784 72.7721 11.9905 73.1206 11.3125C73.4691 10.6344 73.9596 10.106 74.5922 9.72724C75.2286 9.34845 75.9748 9.15906 76.8309 9.15906C77.4066 9.15906 77.9426 9.25186 78.4388 9.43747C78.9388 9.61928 79.3744 9.89391 79.7456 10.2613C80.1206 10.6288 80.4123 11.0909 80.6206 11.6477C80.829 12.2007 80.9331 12.8485 80.9331 13.5909V14.2556H73.5638V12.7556H78.6547C78.6547 12.4072 78.579 12.0985 78.4274 11.8295C78.2759 11.5606 78.0657 11.3503 77.7968 11.1988C77.5316 11.0435 77.2229 10.9659 76.8706 10.9659C76.5032 10.9659 76.1774 11.0511 75.8934 11.2216C75.6131 11.3882 75.3934 11.6136 75.2343 11.8977C75.0752 12.178 74.9937 12.4905 74.9899 12.8352V14.2613C74.9899 14.6931 75.0695 15.0663 75.2286 15.3806C75.3915 15.695 75.6206 15.9375 75.9161 16.1079C76.2115 16.2784 76.5619 16.3636 76.9672 16.3636C77.2362 16.3636 77.4824 16.3257 77.7059 16.25C77.9293 16.1742 78.1206 16.0606 78.2797 15.9091C78.4388 15.7575 78.56 15.5719 78.6434 15.3522L80.882 15.5C80.7684 16.0378 80.5354 16.5075 80.1831 16.9091C79.8346 17.3068 79.3839 17.6174 78.8309 17.8409C78.2816 18.0606 77.6471 18.1704 76.9274 18.1704Z" fill="black"/>
<path d="M62.6365 18V6.36365H67.2274C68.1062 6.36365 68.8562 6.52084 69.4774 6.83524C70.1024 7.14584 70.5778 7.58713 70.9035 8.1591C71.2331 8.72728 71.3978 9.39584 71.3978 10.1648C71.3978 10.9375 71.2312 11.6023 70.8978 12.1591C70.5645 12.7121 70.0816 13.1364 69.449 13.4318C68.8202 13.7273 68.0588 13.875 67.1649 13.875H64.091V11.8977H66.7672C67.2369 11.8977 67.627 11.8333 67.9376 11.7046C68.2482 11.5758 68.4793 11.3826 68.6308 11.125C68.7861 10.8674 68.8637 10.5474 68.8637 10.1648C68.8637 9.77842 68.7861 9.45266 68.6308 9.18751C68.4793 8.92236 68.2463 8.7216 67.9319 8.58524C67.6213 8.44509 67.2293 8.37501 66.7558 8.37501H65.0967V18H62.6365ZM68.9206 12.7046L71.8126 18H69.0967L66.2672 12.7046H68.9206Z" fill="black"/>
<path d="M52.3408 18V9.27271H54.6874V10.7954H54.7783C54.9374 10.2538 55.2045 9.84467 55.5795 9.56816C55.9545 9.28786 56.3863 9.14771 56.8749 9.14771C56.9961 9.14771 57.1268 9.15528 57.267 9.17043C57.4071 9.18558 57.5302 9.20642 57.6363 9.23293V11.3807C57.5226 11.3466 57.3654 11.3163 57.1647 11.2898C56.9639 11.2632 56.7802 11.25 56.6135 11.25C56.2575 11.25 55.9393 11.3276 55.659 11.4829C55.3825 11.6344 55.1628 11.8466 54.9999 12.1193C54.8408 12.392 54.7613 12.7064 54.7613 13.0625V18H52.3408Z" fill="black"/>
<path d="M47.9815 18V9.27272H50.402V18H47.9815ZM49.1974 8.14772C48.8376 8.14772 48.5289 8.0284 48.2713 7.78976C48.0175 7.54734 47.8906 7.25756 47.8906 6.92044C47.8906 6.58711 48.0175 6.30113 48.2713 6.06249C48.5289 5.82006 48.8376 5.69885 49.1974 5.69885C49.5573 5.69885 49.8641 5.82006 50.1179 6.06249C50.3755 6.30113 50.5043 6.58711 50.5043 6.92044C50.5043 7.25756 50.3755 7.54734 50.1179 7.78976C49.8641 8.0284 49.5573 8.14772 49.1974 8.14772Z" fill="black"/>
<path d="M38.017 18H35.3806L39.3977 6.36365H42.5681L46.5795 18H43.9431L41.0283 9.02274H40.9374L38.017 18ZM37.8522 13.4261H44.0795V15.3466H37.8522V13.4261Z" fill="black"/>
<path d="M10.253 0L22.9028 12.5986V19.3621H16.9996V15.03L7.81183 5.87935H5.90325V19.3621H0V0H10.253ZM16.9996 6.71928V0H22.9028V6.71928H16.9996Z" fill="#212326"/>
</svg>
